Coordinates
version=1
nRows=7
nColumns=46
inDegrees=yes

Units are S.I. units (second, meters, Newtons, ...)
Angles are in degrees.

endheader
time	pelvis_tilt	pelvis_list	pelvis_rotation	pelvis_tx	pelvis_ty	pelvis_tz	bb_angle	bb_tx	bb_ty	bb_tz	hip_flexion_r	hip_adduction_r	hip_rotation_r	knee_angle_r	knee_angle_r_beta	ankle_angle_r	subtalar_angle_r	mtp_angle_r	crank_angle_r	hip_flexion_l	hip_adduction_l	hip_rotation_l	knee_angle_l	knee_angle_l_beta	ankle_angle_l	subtalar_angle_l	mtp_angle_l	crank_angle_l	lumbar_extension	lumbar_bending	lumbar_rotation	arm_flex_r	arm_add_r	arm_rot_r	elbow_flex_r	pro_sup_r	wrist_flex_r	wrist_dev_r	arm_flex_l	arm_add_l	arm_rot_l	elbow_flex_l	pro_sup_l	wrist_flex_l	wrist_dev_l
      7.50000000	     -0.80763654	     -1.95992216	      7.91276093	      0.05861913	      1.18104873	     -0.26662340	      0.00000000	      0.50000000	      0.00000000	      0.25000000	     68.92266259	     -3.77643937	      6.78819962	    107.85094773	      1.88235414	    -27.03993097	     -7.91658784	      0.00000000	      0.00000000	     24.18470544	     -3.85719519	     -4.89654315	     23.50452754	      0.41023139	     -0.98430343	     13.36572441	      0.00000000	      0.00000000	    -68.34793384	     11.36219067	      3.11428044	     87.84375657	    -13.69085221	     32.74215148	     47.08828636	     42.84755996	      0.00000000	      0.00000000	     87.24995836	    -18.43647636	     54.79240682	     47.70294939	     32.72884068	      0.00000000	      0.00000000
      7.50500000	     -0.71750882	     -2.55946454	      7.01327295	      0.05936808	      1.18031790	     -0.26827674	      0.00000000	      0.50000000	      0.00000000	      0.25000000	     70.14403330	     -2.78487652	      6.91161410	    108.70080206	      1.89718690	    -25.97133688	     -6.97167727	      0.00000000	      0.00000000	     23.04356257	     -4.91248103	     -6.51108862	     22.77104069	      0.39742963	     -1.23602129	     15.78397299	      0.00000000	      0.00000000	    -68.34629440	     11.77010091	      2.42933842	     88.55876770	    -11.06898731	     34.17462828	     44.77384159	     42.43678039	      0.00000000	      0.00000000	     86.22135746	    -21.55462864	     53.90707557	     49.92906152	     34.29844502	      0.00000000	      0.00000000
      7.51000000	     -0.82151756	     -3.19421328	      6.42154683	      0.05968887	      1.17963202	     -0.27054600	      0.00000000	      0.50000000	      0.00000000	      0.25000000	     71.46891419	     -2.12154039	      6.83688569	    109.35014927	      1.90852014	    -24.95106142	     -6.94345344	      0.00000000	      0.00000000	     22.18017192	     -5.59056256	     -6.79467153	     22.14564782	      0.38651447	     -1.14857735	     15.44628397	      0.00000000	      0.00000000	    -68.23949623	     12.21097251	      2.98817671	     88.69845258	    -10.55502947	     34.33874718	     44.87008374	     42.45222027	      0.00000000	      0.00000000	     85.91440110	    -22.01941239	     53.84566101	     49.72331671	     34.32018935	      0.00000000	      0.00000000
      7.51500000	     -0.94669351	     -3.68620972	      5.66297342	      0.05991404	      1.17885059	     -0.27220883	      0.00000000	      0.50000000	      0.00000000	      0.25000000	     72.79520516	     -1.27801308	      7.05311245	    109.88059169	      1.91777811	    -23.72861574	     -5.85167975	      0.00000000	      0.00000000	     21.47721897	     -6.25871636	     -7.45470234	     21.94978772	      0.38309607	     -0.84353118	     14.89748172	      0.00000000	      0.00000000	    -68.09132079	     12.49579317	      2.96275493	     88.93590285	     -9.20279370	     34.89881777	     44.16466700	     42.27872584	      0.00000000	      0.00000000	     85.35863294	    -23.29112052	     53.22352303	     49.98152997	     34.63521101	      0.00000000	      0.00000000
      7.52000000	     -1.14406548	     -4.26842568	      5.05587313	      0.05991021	      1.17856914	     -0.27424585	      0.00000000	      0.50000000	      0.00000000	      0.25000000	     74.04229659	     -0.60815877	      6.94962152	    110.12050128	      1.92196532	    -22.98150716	     -5.86938311	      0.00000000	      0.00000000	     20.82463170	     -6.78246423	     -7.43095909	     21.31495991	      0.37201623	     -1.95321356	     15.06740653	      0.00000000	      0.00000000	    -67.99241984	     12.86984375	      3.42893704	     89.09765077	     -8.62599339	     35.05118666	     44.22130001	     42.27296947	      0.00000000	      0.00000000	     85.12270347	    -23.82358346	     53.09177127	     49.88839400	     34.66676921	      0.00000000	      0.00000000
      7.52500000	     -1.28215664	     -4.81289495	      4.33358339	      0.05982886	      1.17860328	     -0.27553305	      0.00000000	      0.50000000	      0.00000000	      0.25000000	     75.11142484	      0.26451114	      6.90504913	    110.16854728	      1.92280388	    -22.26604017	     -5.66126664	      0.00000000	      0.00000000	     20.26947786	     -7.44368240	     -7.75311969	     21.28242275	      0.37144835	     -1.90470347	     14.60016873	      0.00000000	      0.00000000	    -68.01051038	     13.08198884	      3.73752414	     89.20731609	     -7.84541702	     35.24348500	     44.20628734	     42.24065425	      0.00000000	      0.00000000	     84.84437221	    -24.60584525	     52.86136120	     49.79557067	     34.70811876	      0.00000000	      0.00000000
      7.53000000	     -1.63748309	     -5.38313904	      3.56021424	      0.05982608	      1.17848602	     -0.27652137	      0.00000000	      0.50000000	      0.00000000	      0.25000000	     76.29240820	      1.27952907	      6.92615578	    110.06432998	      1.92098495	    -21.33101262	     -4.93850634	      0.00000000	      0.00000000	     20.17452596	     -8.22760841	     -8.31862529	     21.75201231	      0.37964423	     -1.60796566	     14.65553085	      0.00000000	      0.00000000	    -67.85952358	     13.41319224	      3.06081980	     89.39054532	     -5.29967813	     35.21721632	     42.86450047	     41.53033681	      0.00000000	      0.00000000	     83.83812163	    -27.24924234	     51.41680035	     51.72152518	     35.54466209	      0.00000000	      0.00000000
